<?xml version="1.0" encoding="utf-8"?>
<svg viewBox="442.94183349609375 76.27171325683594 263.80010986328125 375.0999755859375" width="263.80010986328125" height="375.0999755859375" xmlns="http://www.w3.org/2000/svg"><g transform="matrix(1, 0, 0, 1, -20.958078384399414, -12.328280448913588)"><g transform="matrix(1, 0, 0, 1, 0, -1.4210854715202004e-14)">
		<path class="st2" d="M533.9,163.2c-3.5,0.1-15.1,0.1-15.7,16.4c-0.3,9,9.4,16.2,18.8,13.6c9.9-2.8,13.2-14.1,8.1-23.3&#10;&#9;&#9;&#9;C542.6,165.4,539.3,163,533.9,163.2z M543.1,179.3c-0.4,4.3-4.2,8.1-8.7,7.7c-4.3-0.4-7.9-3.7-8-8.2c0-3.2,1.6-7.8,7.6-8.6&#10;&#9;&#9;&#9;C539.4,169.4,543.6,174.4,543.1,179.3z" style="fill: rgb(255, 194, 0);"/>
		<path class="st1" d="M504.8,398.1c-1-19.2-4.4-38-6-57.1c-1.1-12.7-1.3-23.9-1.1-36.5c-3.4,0.5-8.3,3.3-10.7,5.3&#10;&#9;&#9;&#9;c-5.4,4.4-9.1,12.2-10.8,18.9c-4.1,16-2.6,33.6,1.3,49.5c2.4,9.6,4.8,19.2,6.6,28.9c1.5,8-0.7,16.1-1.1,24.1&#10;&#9;&#9;&#9;c-0.3,7,0.9,15.4,8.9,17.4c6.1,1.5,12.7-0.7,16.5-5.7c-2.6-6.1-3-13.2-3.2-19.7C504.9,414.9,505.2,406.5,504.8,398.1z" style="fill: rgb(89, 89, 89);"/>
		<path class="st0" d="M578.5,186.8c1.2-1.1,3-2.7,2.9-4.5c-0.1-1.3-1.7-1.6-2.7-1.5c-1.6,0.1-2.9,1.1-3.8,2.2&#10;&#9;&#9;&#9;c-0.8,1.1-1.4,0.4-1.8,0c-1.4-1.7-1.9-2.1-3.6-2.6c-1.6-0.5-3,0.7-2.3,2.4c0.6,1.6,3.3,5.4,6,6.3&#10;&#9;&#9;&#9;C575.1,189.1,577,188.1,578.5,186.8z" style="fill: rgb(255, 105, 105);"/>
		<path class="st1" d="M639,336.4c1.7-12.6,5.2-65.8,5.6-72.7c0.8-13.4,2-26.8,2.6-40.3c0.6-13.8,1.3-28,0.2-41.8&#10;&#9;&#9;&#9;c-0.9-11.2-3.2-35.9-3.5-37.3c-1.6-9.9-2.5-20.6-6.5-29.9c-1.2-2.7-3.9-9-7.8-8.2c-4,0.8-7.1,4.5-9.5,7.6c-4.6,6-7.7,13-12,19&#10;&#9;&#9;&#9;c0.7,0.6,1.3,1.4,1.4,2.4c0.1,0.5-0.1,1.1-0.5,1.4c-2,1.5-3.6,0.8-5.9,0.3c-3.5-0.8-7.1-1.3-10.7-1.8c-7-1.1-13.8-1.2-20.9-0.5&#10;&#9;&#9;&#9;c-6.8,0.7-15.5,3.1-21.7,0.5c-0.2,1.6-2.1,2.1-3.4,1.4c-4.8-2.5-18.1-37-25.3-29.9c-5.3,5.2-7,14.5-8.6,21.4&#10;&#9;&#9;&#9;c-1.3,5.5-2.3,11.1-3.5,16.7c-1.2,6-2,9.7-3.7,18.4c-1.1,6.6-2.3,13.2-3.2,19.8c-2,14.5-3,29-2.8,43.7c0.2,14.2,1.1,28.4,2,42.5&#10;&#9;&#9;&#9;c0.9,13.8,2.2,16.9,2.2,38.1c0.5,8.3,0.1,20.2,0.8,28.5c1.4,16.3,4.6,32.3,5.9,48.6c1.3,15.5,0,31.3,1.8,46.8&#10;&#9;&#9;&#9;c0.8,6.4,2,13.2,8.1,16.5c14,7.7,21.3-4.1,22.5-7.3c2.9-8.1,4.1-16.8,4.8-25.3c0.6-8.1,0.7-16.3,0.7-24.5c0-4.4,0-8.9,0.2-13.3&#10;&#9;&#9;&#9;c0.3-6-0.7-13.5,1.8-19c0.6-1.4,2.6-1.1,3.3,0c2,3.3,1.7,7,1.6,10.8c-0.2,4.4-0.5,8.8-0.6,13.2c-0.1,3.8,0,7.5,0,11.3&#10;&#9;&#9;&#9;c0,9.2-0.2,18.4-1.3,27.6c-1.1,8.8-2.5,18.3-6.9,26.2c0,0,0,0.1-0.1,0.1c2.9,0.8,36.6,3,45.1,1c0,0,0,0,0-0.1&#10;&#9;&#9;&#9;c-4.4-9.9-5.1-20.3-5.3-31c-0.2-9.9-1-19.8-1.6-29.7c-0.6-8.5-2-18,0.1-26.3c0.4-1.7,2.9-1.7,3.4,0c1.9,7.3,1.6,15.4,2.3,22.9&#10;&#9;&#9;&#9;c0.7,8.1,1.4,16.2,1.9,24.4c0.5,10.2-0.2,20.6,2.6,30.5c2,7.2,6.2,16.6,15.1,16.4c5.7-0.2,11.7-4.5,14.5-9.8&#10;&#9;&#9;&#9;c1.8-3.4,5.8-25.4,6.4-32.1c1.2-13,2.6-25.9,4.1-38.8C635.8,361.8,637.3,349.1,639,336.4z M535.7,197.7&#10;&#9;&#9;&#9;c-12.2,2.1-21.9-8.8-21.2-20.4c0.3-4.6,1.2-9.2,4.3-12.5c3.9-4.6,8.3-5.5,14.5-5.5c10.3,0,14.5,4.2,17.1,12.5&#10;&#9;&#9;&#9;C554.1,183.4,548.4,195.4,535.7,197.7z M587.7,198.3c-1.5,3.8-8.8,4.2-11.8,2.1c-1.3-0.9-2.2-2-2.8-3.4c-0.8,1.2-1.8,2.1-3.2,2.7&#10;&#9;&#9;&#9;c-4,1.7-9.6,1-12.9-1.9c-0.6-0.5-0.1-1.6,0.6-1.6c3.6,0.2,7.5,2.5,11,0.5c2-1.1,2.4-3,3.1-4.9c-2.1-0.8-4.5-3.3-5.7-4.7&#10;&#9;&#9;&#9;c-1.7-2-3-4.5-1.9-7.2c1-2.4,4.4-3.9,6.9-2.9c1.2,0.5,2,0.9,3,2.7c2.4-3.1,9.6-2.9,10.4,1.4c0.5,3.1-1.4,5.9-3.6,7.8&#10;&#9;&#9;&#9;c-1.5,1.3-3.6,2.7-5.5,3.1c0.4,2.1,0.3,4.6,2.7,5.3c1.5,0.5,3.1,0.7,4.6,0.3c1.2-0.3,2.2-1,3.4-1.2&#10;&#9;&#9;&#9;C586.9,196.4,588.2,197.2,587.7,198.3z M616.4,199.3c-12.2,2.1-21.9-8.8-21.2-20.4c0.3-4.6,1.2-9.2,4.3-12.5&#10;&#9;&#9;&#9;c3.9-4.6,8.3-5.5,14.5-5.5c10.3,0,14.5,4.2,17.1,12.5C634.7,185,629.1,197,616.4,199.3z" style="fill: rgb(89, 89, 89);"/>
		<path class="st1" d="M707.3,333.2c-8.2,0.2-11.5,7-13.3,14.2c-2,8-2.6,16.3-3.9,24.4c-1.1,7.2-3.6,13.9-7.6,20&#10;&#9;&#9;&#9;c-3.4,5.1-9,11.7-15.6,10.6c-0.1,0.9-0.1,1.8-0.1,2.7c-0.2,5.7-0.2,11.5,0.9,17.2c0.7,3.8,1.6,7.6,2,11.5c0.2,2.3,0.2,4.7,0,6.9&#10;&#9;&#9;&#9;c8.7-2.2,17.4-5.1,24.7-10.3c18.7-13.3,24.4-40.1,26.6-61.6C721.8,359.2,722,332.9,707.3,333.2z" style="fill: rgb(89, 89, 89);"/>
		<path class="st1" d="M667.9,341.8c-0.8-7.9-3.2-15.1-7.4-21.9c-3.3-5.3-7-10.3-13-12.8c-0.9,11.9-1.7,21.5-3.1,31.9&#10;&#9;&#9;&#9;c-1.8,13.6-3.5,27.3-5,40.9c-1.5,13.5-2.8,27-4.5,40.4c-0.8,6.2-2,12.4-2.8,18.7c-0.2,1.5-0.3,3-0.7,4.5c2.2,1.7,3.7,4.1,6.1,5.6&#10;&#9;&#9;&#9;c2.9,1.8,6.2,3.1,9.7,3.2c6.7,0.2,14.4-2.6,15.9-9.9c1.5-6.9-0.9-13.7-1.9-20.5c-1.3-8.8-0.9-17.8,0.2-26.6&#10;&#9;&#9;&#9;C663.7,377.4,669.6,360,667.9,341.8z" style="fill: rgb(89, 89, 89);"/>
		<path class="st3" d="M726.3,374.1c1-7.1,1.4-14,0.6-21.1c-1.5-13.8-9-29.9-25.7-25.2c-14.8,4.2-15.3,27.4-16.8,39.5&#10;&#9;&#9;&#9;c-0.7,5.6-1.7,10.7-4.1,15.8c-2.7,5.6-6.5,12.7-12.9,14.5c2.2-19.7,8.9-38.7,6.4-58.8c-1.1-8.8-4.6-16.7-9.5-24.1&#10;&#9;&#9;&#9;c-3.9-5.9-9.1-13.5-16.3-15.2c0.9-12.1,1.6-21.3,2.2-32.3c0.8-14,2.1-28,2.8-42c0.6-13.9,1.5-37.4-0.9-58.2&#10;&#9;&#9;&#9;c-0.7-5.9-2.5-22-3.5-27.9c-1.8-11-3.3-23.1-9.7-32.6c-12-17.9-30.5,12.5-35,24.6c-1.9-0.4-3.9-0.6-5.4-0.8&#10;&#9;&#9;&#9;c-6.5-1.1-12.9-2-19.5-1.9c-5.8,0.1-11.7,0.7-17.4,1.5c-3.1,0.5-6.2,0.9-9.4,1c-1.6,0-2.8-0.2-3.9-0.7c-1.1-1.9-2.5-3.8-3.3-5.3&#10;&#9;&#9;&#9;c-2.4-4.2-4.9-8.4-7.4-12.6c-3.6-6-9.4-15-17.6-11.6c-7.5,3.1-10.1,15.3-11.9,22.2c-1.3,4.9-2.1,9.8-3.2,14.7&#10;&#9;&#9;&#9;c-7.4,32.8-11.6,67.2-11.4,89c0.1,14.2,1.1,28.4,2,42.5c0.6,9.2,2.1,28.3,2.1,28.4c-4.3,0.4-10,3.8-12.9,6&#10;&#9;&#9;&#9;c-6.5,4.8-9.9,10.9-13.1,18.5c-7.7,18.2-4.7,41-0.2,59.5c2.6,10.9,6.7,22.2,6.4,33.5c-0.3,9.5-3.9,20.7,0.6,29.7&#10;&#9;&#9;&#9;c6.6,13.3,23.8,13.1,33.2,3.5c4,7,18.9,15.5,31.8,2.7c7.2,3.9,18,4.3,23.2,4.3c10.7,0,15.3,1.1,27.7-1.9c4.4,5.7,11,8.7,18.8,7.6&#10;&#9;&#9;&#9;c6.3-0.9,11.7-4.4,14.9-9.8c0.4-0.6,0.7-1.3,1.1-2.1c2.4,4.1,7.9,6.8,11.9,8.1c6.8,2.2,14.8,1.2,20.8-2.8c2.9-2,4.8-4.5,6.1-7.4&#10;&#9;&#9;&#9;c11.3-2.4,22.4-5.9,31.7-12.9c8.7-6.6,14.3-16,18.3-26C722.3,397.3,724.6,385.6,726.3,374.1z M491.8,448.7c-8-2-9.2-10.4-8.9-17.4&#10;&#9;&#9;&#9;c0.4-8,2.5-16.1,1.1-24.1c-1.8-9.8-4.2-19.3-6.6-28.9c-3.9-15.9-5.4-33.4-1.3-49.5c1.7-6.7,5.4-14.5,10.8-18.9&#10;&#9;&#9;&#9;c2.4-2,7.3-4.8,10.7-5.3c-0.2,12.6,0,23.9,1.1,36.5c1.6,19.1,5.1,37.9,6,57.1c0.4,8.4,0.1,16.7,0.4,25.1&#10;&#9;&#9;&#9;c0.2,6.5,0.6,13.6,3.2,19.7C504.5,448,497.9,450.2,491.8,448.7z M630.4,413.4c-0.6,6.7-4.6,28.8-6.4,32.1&#10;&#9;&#9;&#9;c-2.8,5.2-8.8,9.6-14.5,9.8c-8.9,0.2-13.1-9.2-15.1-16.4c-2.8-10-2.1-20.3-2.6-30.5c-0.4-8.1-1.2-16.2-1.9-24.4&#10;&#9;&#9;&#9;c-0.6-7.5-0.4-15.6-2.3-22.9c-0.4-1.7-3-1.7-3.4,0c-2.1,8.3-0.6,17.9-0.1,26.3c0.6,9.9,1.4,19.8,1.6,29.7&#10;&#9;&#9;&#9;c0.2,10.7,0.9,21.1,5.3,31c0,0,0,0,0,0.1c-8.5,2-42.2-0.3-45.1-1c0,0,0-0.1,0.1-0.1c4.4-7.9,5.8-17.3,6.9-26.2&#10;&#9;&#9;&#9;c1.1-9.1,1.3-18.4,1.3-27.6c0-3.8-0.1-7.5,0-11.3c0.1-4.4,0.5-8.8,0.6-13.2c0.2-3.8,0.4-7.4-1.6-10.8c-0.7-1.1-2.7-1.4-3.3,0&#10;&#9;&#9;&#9;c-2.5,5.6-1.5,13-1.8,19c-0.2,4.4-0.3,8.9-0.2,13.3c0.1,8.2-0.1,16.3-0.7,24.5c-0.6,8.6-1.9,17.2-4.8,25.3&#10;&#9;&#9;&#9;c-1.2,3.3-8.5,15-22.5,7.3c-6.1-3.3-7.3-10.1-8.1-16.5c-1.8-15.4-0.6-31.2-1.8-46.8c-1.3-16.3-4.5-32.3-5.9-48.6&#10;&#9;&#9;&#9;c-0.7-8.3-0.3-20.2-0.8-28.5c0-21.2-1.3-24.3-2.2-38.1c-0.9-14.2-1.8-28.3-2-42.5c-0.2-14.6,0.8-29.2,2.8-43.7&#10;&#9;&#9;&#9;c0.9-6.6,2.1-13.2,3.2-19.8c1.8-8.7,2.5-12.4,3.7-18.4c1.1-5.6,2.2-11.2,3.5-16.7c1.6-6.9,3.3-16.3,8.6-21.4&#10;&#9;&#9;&#9;c7.2-7,20.5,27.4,25.3,29.9c1.3,0.7,3.2,0.2,3.4-1.4c6.2,2.7,14.9,0.2,21.7-0.5c7.1-0.7,13.9-0.6,20.9,0.5c3.6,0.6,7.2,1,10.7,1.8&#10;&#9;&#9;&#9;c2.3,0.5,3.9,1.3,5.9-0.3c0.4-0.3,0.6-0.9,0.5-1.4c-0.2-1-0.7-1.8-1.4-2.4c4.3-6.1,7.4-13.1,12-19c2.4-3,5.5-6.8,9.5-7.6&#10;&#9;&#9;&#9;c3.9-0.8,6.6,5.5,7.8,8.2c4.1,9.3,4.9,20,6.5,29.9c0.2,1.4,2.5,26.1,3.5,37.3c1.2,13.8,0.4,28-0.2,41.8&#10;&#9;&#9;&#9;c-0.6,13.4-1.7,26.9-2.6,40.3c-0.4,6.9-3.9,60.1-5.6,72.7c-1.7,12.7-3.2,25.4-4.6,38.1C633,387.5,631.6,400.4,630.4,413.4z&#10;&#9;&#9;&#9; M661.3,421.8c1,6.8,3.4,13.6,1.9,20.5c-1.6,7.4-9.2,10.2-15.9,9.9c-3.5-0.1-6.8-1.4-9.7-3.2c-2.4-1.5-3.9-3.9-6.1-5.6&#10;&#9;&#9;&#9;c0.3-1.5,0.5-3,0.7-4.5c0.8-6.2,2-12.4,2.8-18.7c1.7-13.4,3-26.9,4.5-40.4c1.5-13.7,3.2-27.3,5-40.9c1.3-10.4,2.2-20,3.1-31.9&#10;&#9;&#9;&#9;c5.9,2.6,9.7,7.5,13,12.8c4.2,6.8,6.7,14,7.4,21.9c1.7,18.2-4.2,35.6-6.4,53.4C660.4,404,659.9,413,661.3,421.8z M694.2,430.4&#10;&#9;&#9;&#9;c-7.3,5.2-16,8.1-24.7,10.3c0.3-2.3,0.3-4.6,0-6.9c-0.4-3.9-1.2-7.7-2-11.5c-1.1-5.7-1.1-11.5-0.9-17.2c0-0.9,0.1-1.8,0.1-2.7&#10;&#9;&#9;&#9;c6.5,1.1,12.1-5.5,15.6-10.6c4.1-6.1,6.5-12.8,7.6-20c1.3-8.2,1.9-16.4,3.9-24.4c1.8-7.1,5-14,13.3-14.2&#10;&#9;&#9;&#9;c14.8-0.3,14.5,26,13.6,35.6C718.7,390.4,713,417.1,694.2,430.4z" style="fill: rgb(30, 30, 30);"/>
		<path class="st3" d="M533.3,159.2c-6.2,0-10.5,0.9-14.5,5.5c-3.1,3.4-4,7.9-4.3,12.5c-0.7,11.6,9,22.5,21.2,20.4&#10;&#9;&#9;&#9;c12.7-2.2,18.4-14.2,14.7-26C547.7,163.4,543.5,159.2,533.3,159.2z M537,193.2c-9.3,2.6-19.1-4.6-18.8-13.6&#10;&#9;&#9;&#9;c0.6-16.3,12.2-16.3,15.7-16.4c5.4-0.2,8.7,2.2,11.2,6.7C550.2,179.1,546.9,190.4,537,193.2z" style="fill: rgb(30, 30, 30);"/>
		<path class="st3" d="M613.9,160.8c-6.2,0-10.5,0.9-14.5,5.5c-3.1,3.4-4,7.9-4.3,12.5c-0.7,11.6,9,22.5,21.2,20.4&#10;&#9;&#9;&#9;c12.7-2.2,18.4-14.2,14.7-26C628.4,165,624.2,160.8,613.9,160.8z M617.6,194.8c-9.3,2.6-19.1-4.6-18.8-13.6&#10;&#9;&#9;&#9;c0.6-16.3,12.2-16.3,15.7-16.4c5.4-0.2,8.7,2.2,11.2,6.7C630.9,180.7,627.5,192,617.6,194.8z" style="fill: rgb(30, 30, 30);"/>
		<path class="st3" d="M586,196.5c-1.2,0.2-2.2,0.9-3.4,1.2c-1.5,0.4-3.1,0.2-4.6-0.3c-2.4-0.7-2.2-3.2-2.7-5.3&#10;&#9;&#9;&#9;c1.9-0.5,4-1.9,5.5-3.1c2.2-1.9,4.2-4.7,3.6-7.8c-0.7-4.4-8-4.5-10.4-1.4c-1-1.8-1.8-2.2-3-2.7c-2.5-1-5.9,0.5-6.9,2.9&#10;&#9;&#9;&#9;c-1.1,2.6,0.2,5.2,1.9,7.2c1.2,1.4,3.6,3.9,5.7,4.7c-0.7,1.9-1.1,3.8-3.1,4.9c-3.6,2-7.4-0.3-11-0.5c-0.8,0-1.2,1-0.6,1.6&#10;&#9;&#9;&#9;c3.3,2.9,8.9,3.6,12.9,1.9c1.4-0.6,2.4-1.6,3.2-2.7c0.6,1.4,1.6,2.5,2.8,3.4c3.1,2.1,10.3,1.7,11.8-2.1&#10;&#9;&#9;&#9;C588.2,197.2,586.9,196.4,586,196.5z M567.2,182.9c-0.7-1.7,0.6-2.9,2.3-2.4c1.7,0.5,2.2,0.9,3.6,2.6c0.3,0.4,0.9,1.1,1.8,0&#10;&#9;&#9;&#9;c0.9-1.2,2.2-2.1,3.8-2.2c1.1-0.1,2.7,0.1,2.7,1.5c0.1,1.7-1.7,3.4-2.9,4.5c-1.5,1.4-3.4,2.4-5.3,2.4&#10;&#9;&#9;&#9;C570.5,188.2,567.8,184.5,567.2,182.9z" style="fill: rgb(30, 30, 30);"/>
		<path class="st3" d="M534,170.2c-6,0.8-7.6,5.4-7.6,8.6c0.1,4.5,3.6,7.8,8,8.2c4.5,0.4,8.3-3.4,8.7-7.7&#10;&#9;&#9;&#9;C543.6,174.4,539.4,169.4,534,170.2z" style="fill: rgb(30, 30, 30);"/>
		<g>
			<path class="st2" d="M625.8,171.5c-2.5-4.5-5.8-6.9-11.2-6.7c-3.5,0.1-15.1,0.1-15.7,16.4c-0.3,9,9.4,16.2,18.8,13.6&#10;&#9;&#9;&#9;&#9;C627.5,192,630.9,180.7,625.8,171.5z M618.7,180.7c-0.4,4.3-4.2,8.1-8.7,7.7c-4.3-0.4-7.9-3.7-8-8.2c0-3.2,1.6-7.8,7.6-8.6&#10;&#9;&#9;&#9;&#9;C615,170.8,619.2,175.8,618.7,180.7z" style="fill: rgb(255, 194, 0);"/>
			<path class="st3" d="M609.6,171.5c-6,0.8-7.6,5.4-7.6,8.6c0.1,4.5,3.6,7.8,8,8.2c4.5,0.4,8.3-3.4,8.7-7.7&#10;&#9;&#9;&#9;&#9;C619.2,175.8,615,170.8,609.6,171.5z" style="fill: rgb(30, 30, 30);"/>
		</g>
	</g><path class="st4" d="M530.5,115.2C530.6,115.3,530.6,115.3,530.5,115.2C530.4,115.1,530.4,115.1,530.5,115.2z" style="opacity: 0.5; fill: rgb(255, 255, 255);" transform="matrix(1, 0, 0, 1, 0, -1.4210854715202004e-14)"/><path class="st4" d="M534.6,122.6c-0.7-1.4-1.3-2.8-2-4.2c-0.3-0.6-0.7-1.1-1-1.7c-0.2-0.3-0.8-1.2-1.1-1.5&#10;&#9;&#9;&#9;c-2.1-2.6-6.9-2-6.8,1.9c0.1,2.9,1.4,5.6,2.6,8.3c0.7,1.6,1.1,3.2,2.4,4.4c1,0.9,2.5,2.5,4.6,1.9&#10;&#9;&#9;&#9;C537.3,130.6,535.8,125.2,534.6,122.6z" style="opacity: 0.5; fill: rgb(255, 255, 255);" transform="matrix(1, 0, 0, 1, 0, -1.4210854715202004e-14)"/><path class="st4" d="M638.5,128.2c-0.2-2.1-0.8-4.1-1.3-6.1c-0.6-2.3-0.8-4.5-1.8-6.6c-1.8-3.9-6.7-2-8,1&#10;&#9;&#9;c-1.5,3.6-0.3,8.3,0.5,11.9c0.7,3.2,2.7,8.6,6.7,8.6C638.7,137,638.7,131.1,638.5,128.2z" style="opacity: 0.5; fill: rgb(255, 255, 255);" transform="matrix(1, 0, 0, 1, 0, -1.4210854715202004e-14)"/><path class="st4" d="M638.8,141.2c-1.6-1.9-5.2-0.9-5.7,1.5c-0.4,2.2,0.1,5.1,1.7,6.8c0.9,0.9,2.2,1.2,3.5,0.9&#10;&#9;&#9;c1.3-0.4,2-1.3,2.5-2.5C641.5,145.8,640.1,142.8,638.8,141.2z" style="opacity: 0.5; fill: rgb(255, 255, 255);" transform="matrix(1, 0, 0, 1, 0, -1.4210854715202004e-14)"/><path class="st4" d="M545.1,178.5c-0.5-2.2-1.4-4.1-2.3-6.1c-1.1-2.6-3.3-5.2-6.4-3.7c-2.7,1.3-2.1,4.8-1.5,7.1&#10;&#9;&#9;c0.6,2.1,1.2,4.2,2.5,6C540.2,185.6,546.2,183.4,545.1,178.5z" style="opacity: 0.5; fill: rgb(255, 255, 255);" transform="matrix(1, 0, 0, 1, 0, -1.4210854715202004e-14)"/><path class="st4" d="M625.3,175.8c-0.7-2.6-1.5-5.2-3.8-6.8c-2-1.4-5.1-0.4-6.3,1.6c-1.3,2.3-0.6,5-0.2,7.5c0.5,2.7,1.3,5,3.4,6.6&#10;&#9;&#9;c-0.1-0.1-0.3-0.2-0.4-0.3c2.3,2.8,6.4,1.5,7.5-1.6C626.5,180.6,626,178.2,625.3,175.8z" style="opacity: 0.5; fill: rgb(255, 255, 255);" transform="matrix(1, 0, 0, 1, 0, -1.4210854715202004e-14)"/><path class="st4" d="M583.7,139.7c-2.8-6.3-14.3-3.6-19-1.3c-1.3,0.6-1.4,2.9,0,3.5c3,1.3,5.9,1.3,9.2,1.3c3.1,0,6.3,0.8,9.1-0.9&#10;&#9;&#9;C584,141.7,584.1,140.7,583.7,139.7z" style="opacity: 0.5; fill: rgb(255, 255, 255);" transform="matrix(1, 0, 0, 1, 0, -1.4210854715202004e-14)"/><path class="st4" d="M640.4,270c-1.1-3.1-5-3-6.1,0c-1.8,4.7-1.6,10.3-1.9,15.3c-0.4,5-1.4,10.3,0.5,15.1c0.9,2.2,3.6,2.7,4.9,0.6&#10;&#9;&#9;c2.7-4.1,2.9-9.2,3.3-14C641.4,281.6,642.3,275.2,640.4,270z" style="opacity: 0.5; fill: rgb(255, 255, 255);" transform="matrix(1, 0, 0, 1, 0, -1.4210854715202004e-14)"/><path class="st4" d="M636.7,308.2c-0.9-1.3-2.7-1.3-3.6,0c-1,1.4-1,3.4-1.1,5.1c-0.1,1.7,0.3,3.3,1.1,4.8c0.5,0.9,1.7,1,2.4,0.3&#10;&#9;&#9;c1.2-1.2,2-2.9,2.1-4.6C637.7,312.1,637.7,309.8,636.7,308.2z" style="opacity: 0.5; fill: rgb(255, 255, 255);" transform="matrix(1, 0, 0, 1, 0, -1.4210854715202004e-14)"/><path class="st4" d="M629.4,372.5c-1.5-1.2-3.8-1.7-5.2,0c-3.8,4.6-3.6,12.9-4,18.5c-0.5,7.1-1.2,15.3,1,22.2&#10;&#9;&#9;c0.7,2.2,3.8,2.8,5,0.7c3.6-6.1,3.5-14.2,3.7-21.1c0.1-4.1,0.5-8.2,0.9-12.3C631,377.6,631.9,374.5,629.4,372.5z" style="opacity: 0.5; fill: rgb(255, 255, 255);" transform="matrix(1, 0, 0, 1, 0, -1.4210854715202004e-14)"/><path class="st4" d="M624.8,419.2c-1.1-1-2.8-1-3.9,0c-1.2,1.1-1.3,3.3-1,4.9c-0.1-0.6,0,0.4,0,0.4c0,0.6,0.2,1.1,0.5,1.6&#10;&#9;&#9;c0.4,0.7,1.2,1.3,2,1.3c1.9,0,2.6-1.4,3.2-3C626.2,422.9,626,420.3,624.8,419.2z" style="opacity: 0.5; fill: rgb(255, 255, 255);" transform="matrix(1, 0, 0, 1, 0, -1.4210854715202004e-14)"/><path class="st4" d="M545.4,379.4c0-5.4,0.5-12.3-2-17.2c-0.8-1.6-3.4-1.6-4.3,0c-2.6,5-1.8,11.7-1.9,17.2&#10;&#9;&#9;c-0.1,5.7-1.3,12.1,1,17.5c0.8,1.8,3.1,1.2,4.1,0C545.9,392.2,545.4,385.1,545.4,379.4z" style="opacity: 0.5; fill: rgb(255, 255, 255);" transform="matrix(1, 0, 0, 1, 0, -1.4210854715202004e-14)"/><path class="st4" d="M539.4,403.3c-0.9,1.6-1.1,3.2-1.3,5c-0.1,1.7-0.1,4,1.1,5.3c0.5,0.5,1.2,0.5,1.8,0.2c2.8-1.5,1.9-6.3,2.3-8.9&#10;&#9;&#9;C543.6,402.6,540.7,401,539.4,403.3z" style="opacity: 0.5; fill: rgb(255, 255, 255);" transform="matrix(1, 0, 0, 1, 0, -1.4210854715202004e-14)"/><path class="st4" d="M487,315.8c-5,5.5-7.5,12.6-9,19.8c-1.6,7.2-3.1,16.6,1.6,22.9c1.3,1.8,3.6,1.4,4.5-0.6&#10;&#9;&#9;c2.6-6.2,1.8-13.3,3.2-19.8c1.4-6.5,4.2-12.5,5.8-18.8C493.8,316,489.5,313.1,487,315.8z" style="opacity: 0.5; fill: rgb(255, 255, 255);" transform="matrix(1, 0, 0, 1, 0, -1.4210854715202004e-14)"/><path class="st4" d="M486.5,364.5c-1.2-1.5-3.3-0.7-4.2,0.5c-1.4,1.9-0.8,4.4-0.5,6.6c0.3,2.2,0.9,5.3,3.8,5.3&#10;&#9;&#9;C491.1,376.9,488.4,367,486.5,364.5z" style="opacity: 0.5; fill: rgb(255, 255, 255);" transform="matrix(1, 0, 0, 1, 0, -1.4210854715202004e-14)"/><path class="st4" d="M664.1,342.4c-0.6-7.1-2.9-16.5-9.4-20.5c-2.3-1.4-5.3,0.9-4.6,3.5c0.9,3,2.4,5.6,3.4,8.5&#10;&#9;&#9;c1.2,3.6,1.6,7.5,1.8,11.2c0.3,6.2-1.9,12.9,0.9,18.8c0.6,1.2,2.1,1.1,3,0.4C665.4,359.6,664.6,349.3,664.1,342.4z" style="opacity: 0.5; fill: rgb(255, 255, 255);" transform="matrix(1, 0, 0, 1, 0, -1.4210854715202004e-14)"/><path class="st4" d="M660.9,372.2c-0.2-2.4-2.9-3.7-4.7-2c-2.3,2.2-2.7,6.4-2.2,9.2c0.4,2.7,4.8,3.2,5.9,0.8c0.7-1.5,1.1-2.9,1-4.6&#10;&#9;&#9;c0-0.6,0-1.1,0-1.7c0-0.3,0-0.5,0.1-0.8C661,373,660.9,371.4,660.9,372.2z" style="opacity: 0.5; fill: rgb(255, 255, 255);" transform="matrix(1, 0, 0, 1, 0, -1.4210854715202004e-14)"/><path class="st4" d="M717.5,350.6c-0.5-4.1-1.1-8.3-4.8-10.8c-1.5-1-3.2-0.2-4.1,1.1c-2.3,3.2-1.6,7.6-1.3,11.3&#10;&#9;&#9;c0.4,4.6,0.7,9.1,0.5,13.7c-0.4,8.1-4.7,17.5-1.3,25.4c0.7,1.7,3,1.5,4.1,0.5c6.6-5.6,7.6-17.8,8-25.9&#10;&#9;&#9;C719,360.8,718.2,355.6,717.5,350.6z" style="opacity: 0.5; fill: rgb(255, 255, 255);" transform="matrix(1, 0, 0, 1, 0, -1.4210854715202004e-14)"/><path class="st4" d="M710.6,398.8c-0.3-2.3-3.5-3.3-5.3-2.2c-2.5,1.6-4.7,6.5-3.1,9.3c0.8,1.3,2.4,2,3.9,1.6c1.7-0.5,2.7-2,3.5-3.5&#10;&#9;&#9;C710.4,402.4,710.8,400.7,710.6,398.8z" style="opacity: 0.5; fill: rgb(255, 255, 255);" transform="matrix(1, 0, 0, 1, 0, -1.4210854715202004e-14)"/><path class="st4" d="M686.5,425.8c-0.7-1.1-1.7-1.5-2.9-1.7c-0.9-0.1-1.8,0.2-2.6,0.7c-0.6,0.4-1.3,0.6-1.8,1.2&#10;&#9;&#9;c-0.9,1.1-1.7,2.3-0.9,3.8c0.6,1.2,2.1,1.9,3.4,1.9c1.9,0,3.7-0.9,4.7-2.4C687.2,428.2,687.1,426.8,686.5,425.8z" style="opacity: 0.5; fill: rgb(255, 255, 255);" transform="matrix(1, 0, 0, 1, 0, -1.4210854715202004e-14)"/></g></svg>